<svg xmlns="http://www.w3.org/2000/svg" viewBox="0 0 38.85 38.92"><defs><style>.cls-1{fill:#333;}</style></defs><title>4</title><g id="Layer_2" data-name="Layer 2"><g id="Xe_Máy" data-name="Xe Máy"><path class="cls-1" d="M29.16,13.07a2.42,2.42,0,0,0-2.38-2.37h-.36v-.17a1.82,1.82,0,0,0-1.8-1.85h-.21a1.85,1.85,0,0,0-1.84,1.85v.17H16.9v-.17A1.88,1.88,0,0,0,15,8.68h-.21A1.87,1.87,0,0,0,13,10.53v.17h-.29a2.38,2.38,0,0,0-2.35,2.37V26a2.31,2.31,0,0,0,2.35,2.28H26.78A2.34,2.34,0,0,0,29.16,26v-9.6c0-.06,0-.12,0-.18s0-.13,0-.19ZM24,10.51a.42.42,0,0,1,.42-.42h.17a.42.42,0,0,1,.42.42V11.7a.42.42,0,0,1-.42.42h-.17A.42.42,0,0,1,24,11.7Zm-9.63,0a.42.42,0,0,1,.42-.42H15a.42.42,0,0,1,.42.42V11.7a.42.42,0,0,1-.42.42h-.18a.42.42,0,0,1-.42-.42ZM27.74,26a.92.92,0,0,1-1,.86H12.66a.89.89,0,0,1-.93-.86V16.88h16Zm0-10.49h-16V13.07a1,1,0,0,1,.93-1H13a1.84,1.84,0,0,0,1.79,1.42H15a1.85,1.85,0,0,0,1.79-1.42h5.8a1.85,1.85,0,0,0,1.79,1.42h.21a1.83,1.83,0,0,0,1.79-1.42h.37a1,1,0,0,1,1,1Z"/><path class="cls-1" d="M6.12,33.37a.63.63,0,0,1-.43-.17A19.43,19.43,0,0,1,30.77,3.68a.6.6,0,0,1,.14.85.62.62,0,0,1-.85.14A18.21,18.21,0,0,0,6.55,32.34a.6.6,0,0,1,0,.86A.63.63,0,0,1,6.12,33.37Z"/><path class="cls-1" d="M19.43,38.92A19.38,19.38,0,0,1,8.08,35.23a.61.61,0,0,1,.71-1A18.22,18.22,0,0,0,32.31,6.58a.61.61,0,0,1,.86-.86,19.46,19.46,0,0,1-13.74,33.2Z"/><path class="cls-1" d="M34.24,7h-.09l-1.5-.21a.62.62,0,0,1-.52-.69.61.61,0,0,1,.69-.51l1.5.21A.61.61,0,0,1,34.24,7Z"/><path class="cls-1" d="M32.52,8.26h-.09a.6.6,0,0,1-.51-.69l.21-1.5a.61.61,0,0,1,1.21.17l-.22,1.51A.6.6,0,0,1,32.52,8.26Z"/><path class="cls-1" d="M6.12,33.37H6l-1.5-.22A.61.61,0,0,1,4.7,32l1.51.22a.6.6,0,0,1-.09,1.2Z"/><path class="cls-1" d="M6.12,33.37H6a.61.61,0,0,1-.51-.69l.21-1.5a.61.61,0,1,1,1.21.17l-.22,1.5A.6.6,0,0,1,6.12,33.37Z"/></g></g></svg>