<?xml version="1.0" encoding="utf-8"?>
<!-- Generator: Adobe Illustrator 23.0.1, SVG Export Plug-In . SVG Version: 6.00 Build 0)  -->
<svg version="1.1" id="Layer_1" xmlns="http://www.w3.org/2000/svg" xmlns:xlink="http://www.w3.org/1999/xlink" x="0px" y="0px"
	 viewBox="0 0 150 30" style="enable-background:new 0 0 150 30;" xml:space="preserve">
<style type="text/css">
	.st0{fill:#231F20;}
	.st1{fill:url(#SVGID_1_);}
	.st2{fill:url(#SVGID_2_);}
	.st3{fill:url(#SVGID_3_);}
	.st4{fill:#D8DBDE;}
	.st5{fill:#EBEDEE;}
</style>
<g>
	<path class="st0" d="M74,8.7l-5.5,12.6h2.9l1.1-2.8h6.8l1.1,2.8h2.9L77.9,8.7H74z M73.4,16.4l2.2-5.3h0.9l2.1,5.3H73.4z"/>
	<path class="st0" d="M54.5,8.7h-6.2l1.1,2.4v10.3h2.7v-4.3h2.4c4.6,0,6.6-1.6,6.6-4.3S59.2,8.7,54.5,8.7 M54.5,14.7h-2.4v-3.5h2.4
		c2.7,0,3.7,0.4,3.7,1.7C58.2,14.2,57,14.7,54.5,14.7"/>
	<rect x="63.6" y="8.7" class="st0" width="2.7" height="12.6"/>
	<rect x="115.7" y="8.7" class="st0" width="2.7" height="12.6"/>
	<path class="st0" d="M128.4,8.6c-5.3,0-7.2,1.7-7.2,6.5s2,6.7,7.2,6.7c5.3,0,7.1-1.7,7.1-6.6S133.5,8.6,128.4,8.6 M128.4,19.4
		c-3.3,0-4.4-0.6-4.4-4.3s1.1-4.2,4.4-4.2c3.3,0,4.3,0.5,4.3,4.2S131.7,19.4,128.4,19.4"/>
	<path class="st0" d="M107.6,16.8h2.7v2c-1.1,0.4-2.2,0.6-3.4,0.6c-2.9,0-4.5-1.3-4.5-4.2s1.7-4.3,5-4.3c1.3,0,2.7,0.1,3.9,0.4
		l0.6-2.4c-1.5-0.2-2.8-0.2-4.3-0.2c-5.1,0-8.2,1.7-8.2,6.7c0,4.3,2.6,6.5,7.5,6.5c2.1,0,4.2-0.6,6-1.5v-5.6h-5.4L107.6,16.8z"/>
	<path class="st0" d="M92,16.8h2.7v2c-1.1,0.4-2.2,0.6-3.4,0.6c-2.9,0-4.5-1.3-4.5-4.2s1.7-4.3,5-4.3c1.3,0,2.7,0.1,3.9,0.4l0.6-2.4
		c-1.5-0.2-2.8-0.2-4.3-0.2c-5.1,0-8.2,1.7-8.2,6.7c0,4.3,2.6,6.5,7.5,6.5c2.1,0,4.2-0.6,6-1.5v-5.6H92V16.8L92,16.8z"/>
	<path class="st0" d="M138.1,8.9c0.7,0,1.3,0.6,1.3,1.3s-0.6,1.3-1.3,1.3s-1.3-0.6-1.3-1.3l0,0C136.7,9.3,137.3,8.9,138.1,8.9
		L138.1,8.9 M138.1,11.3c0.6,0,1.1-0.5,1.1-1.1s-0.5-1.1-1.1-1.1s-1.1,0.5-1.1,1.1l0,0C137,10.7,137.5,11.3,138.1,11.3L138.1,11.3
		 M137.6,9.3h0.6c0.4,0,0.5,0.1,0.5,0.5s-0.1,0.4-0.4,0.4l0.5,0.7h-0.4l-0.4-0.7h-0.2v0.6h-0.2V9.3z M137.8,10.1h0.2
		c0.2,0,0.4,0,0.4-0.2s-0.1-0.2-0.4-0.2h-0.4v0.5H137.8z"/>
</g>
<g>
	<g>
		
			<radialGradient id="SVGID_1_" cx="31.4259" cy="16.7041" r="11.9579" gradientTransform="matrix(1 0 0 -1 0 32)" gradientUnits="userSpaceOnUse">
			<stop  offset="0.2067" style="stop-color:#0098DA"/>
			<stop  offset="0.9106" style="stop-color:#00609F"/>
			<stop  offset="1" style="stop-color:#00519F"/>
		</radialGradient>
		<path class="st1" d="M42.1,13.8c0-0.7,0-1.4,0-2.2c0-0.3,0-0.5,0-0.8s0-0.7-0.1-1c0-0.3-0.1-0.5-0.4-0.6c-0.1-0.1-0.3-0.2-0.4-0.3
			c-0.3-0.2-0.6-0.4-0.9-0.6c-0.2-0.1-0.5-0.3-0.7-0.4c-0.5-0.3-1-0.6-1.5-0.9c-0.9-0.5-1.7-1-2.6-1.5c-0.8-0.4-1.6-0.9-2.3-1.3
			c-0.3-0.2-0.6-0.3-0.9-0.4c-0.2-0.1-0.4-0.1-0.7,0c-0.1,0-0.2,0.1-0.3,0.1c-0.5,0.3-1.1,0.6-1.6,0.8c-1.3,0.7-2.7,1.5-4,2.3
			c-0.9,0.5-1.7,1-2.6,1.5c-0.2,0.1-0.3,0.2-0.5,0.3S22.3,9,22.1,9.2c-0.1,0.1-0.2,0.3-0.2,0.4c0,0.1,0,0.2,0,0.3
			c0,0.5,0,0.9-0.1,1.4c0,0.1,0,0.3,0,0.4v0.1c0,0.5,0,1,0,1.5c0,1.2,0,2.4,0,3.7c0,0.7,0,1.5,0,2.2c0,0.2,0,0.5,0,0.7
			c0,0.1,0,0.3,0,0.4s0,0.2,0,0.4c0,0.1,0.1,0.3,0.2,0.4c0.2,0.2,0.4,0.3,0.6,0.4c0.5,0.3,1,0.6,1.5,0.9c1.8,1.1,3.7,2.2,5.6,3.2
			c0.6,0.3,1.2,0.7,1.8,1c0.1,0,0.2,0.1,0.3,0.1s0.2,0,0.3,0c0.2,0,0.3-0.1,0.5-0.2c0.7-0.3,1.3-0.7,1.9-1c0.9-0.5,1.8-1,2.7-1.5
			c0.4-0.2,0.7-0.4,1.1-0.6c0.6-0.4,1.3-0.7,1.9-1.1c0.5-0.3,1-0.6,1.5-1c0.1-0.1,0.2-0.2,0.3-0.4c0-0.1,0.1-0.3,0.1-0.4
			c0-0.3,0-0.6,0.1-0.9c0-0.3,0-0.6,0-0.9c0-0.9,0-1.8,0-2.8C42.2,15.1,42.2,14.5,42.1,13.8z M40.3,16.6c-0.5,1.2-1.4,2-2.6,2.4
			c-0.4,0.1-0.7,0.2-1.1,0.2c-0.5,0-0.9-0.1-1.3-0.3c-0.4-0.2-0.8-0.4-1.3-0.7c-0.2-0.1-0.4-0.2-0.7-0.4l0,0c0,0.7,0,1.4,0,2.1
			c0,0.4,0,0.8,0,1.2c0,0.1,0,0.2,0,0.3c0,0.1,0,0.1-0.1,0.1c-0.1,0.1-0.1,0.1-0.2,0.1c-0.3,0.2-0.6,0.4-0.9,0.5c-0.1,0-0.2,0-0.3,0
			c-0.3-0.2-0.7-0.4-1-0.6c-0.1,0-0.1-0.1-0.1-0.1c-0.1,0-0.1-0.1-0.1-0.2s0-0.2,0-0.2c0-1.1,0-2.2,0-3.2v-0.1c0,0-0.1,0-0.1,0.1
			c-0.5,0.3-1,0.6-1.6,0.9c-0.3,0.1-0.5,0.2-0.8,0.3c-0.3,0.1-0.7,0.1-1,0.1c-0.5-0.1-1-0.2-1.5-0.4c-0.6-0.3-1.2-0.8-1.6-1.3
			c-0.1-0.2-0.2-0.3-0.3-0.5c-0.1-0.2-0.2-0.5-0.2-0.7c-0.1-0.4-0.1-0.8-0.1-1.3c0-0.4,0.1-0.9,0.3-1.3c0-0.1,0.1-0.2,0.1-0.3
			c0.1-0.1,0.2-0.3,0.3-0.4c0.1-0.2,0.2-0.3,0.3-0.4c0.1-0.1,0.3-0.2,0.4-0.4c0.3-0.2,0.6-0.4,1-0.6c0.3-0.2,0.7-0.4,1-0.6
			c0.2-0.1,0.4-0.2,0.6-0.4c0.3-0.2,0.7-0.4,1-0.6c0.3-0.2,0.6-0.4,0.9-0.5c0.3-0.2,0.6-0.3,0.9-0.5c0.3-0.2,0.5-0.4,0.8-0.5
			c0.1-0.1,0.3-0.2,0.4-0.3c0.1-0.1,0.2-0.2,0.4-0.3c0.1-0.1,0.2-0.1,0.3,0C32.4,8,32.7,8.3,33,8.5c0.4,0.3,0.9,0.6,1.4,0.9
			c0.5,0.3,1,0.6,1.5,0.9c0.4,0.3,0.9,0.5,1.3,0.8c0.4,0.2,0.9,0.5,1.3,0.7c0.3,0.2,0.6,0.4,0.9,0.7c0.2,0.2,0.3,0.3,0.5,0.5
			c0.4,0.5,0.6,1.1,0.7,1.7C40.6,15.3,40.6,16,40.3,16.6z"/>
		
			<radialGradient id="SVGID_2_" cx="31.4259" cy="16.7041" r="11.9579" gradientTransform="matrix(1 0 0 -1 0 32)" gradientUnits="userSpaceOnUse">
			<stop  offset="0.2067" style="stop-color:#0098DA"/>
			<stop  offset="0.9106" style="stop-color:#00609F"/>
			<stop  offset="1" style="stop-color:#00519F"/>
		</radialGradient>
		<path class="st2" d="M38.1,14.8c-0.1-0.3-0.3-0.5-0.5-0.7c-0.3-0.2-0.6-0.4-0.9-0.5c-0.4-0.2-0.8-0.5-1.2-0.7
			c-0.6-0.4-1.3-0.7-1.9-1.1c-0.1-0.1-0.1-0.1-0.1,0.1c0,0.7,0,1.4,0,2.1c0,0.3,0,0.6,0,0.8c0,0.1,0,0.1,0.1,0.1
			c0.2,0.1,0.4,0.2,0.6,0.4c0.4,0.2,0.9,0.5,1.3,0.7c0.3,0.2,0.5,0.3,0.8,0.4c0.2,0.1,0.5,0.2,0.7,0.1c0.7-0.1,1.2-0.7,1.2-1.4
			c0-0.1,0-0.1,0-0.2C38.1,15,38.1,14.9,38.1,14.8z"/>
		
			<radialGradient id="SVGID_3_" cx="31.4259" cy="16.7041" r="11.9579" gradientTransform="matrix(1 0 0 -1 0 32)" gradientUnits="userSpaceOnUse">
			<stop  offset="0.2067" style="stop-color:#0098DA"/>
			<stop  offset="0.9106" style="stop-color:#00609F"/>
			<stop  offset="1" style="stop-color:#00519F"/>
		</radialGradient>
		<path class="st3" d="M30.5,13.3L30.5,13.3c0-0.5,0-1,0-1.5c0-0.1,0-0.1-0.1-0.1c-0.4,0.2-0.9,0.5-1.3,0.7c-0.9,0.5-1.8,1-2.7,1.6
			c-0.2,0.1-0.3,0.2-0.4,0.4c-0.3,0.4-0.3,0.9-0.1,1.4c0.1,0.3,0.4,0.5,0.7,0.7c0.3,0.2,0.7,0.2,1,0c0.2-0.1,0.4-0.2,0.5-0.3
			c0.2-0.1,0.5-0.3,0.7-0.4c0.1-0.1,0.3-0.2,0.4-0.2c0.1-0.1,0.3-0.2,0.4-0.3c0.3-0.1,0.5-0.3,0.8-0.4c0.1,0,0.1-0.1,0.1-0.2
			C30.5,14.3,30.5,13.8,30.5,13.3z"/>
	</g>
	<g>
		<path class="st4" d="M44.5,7.7c-0.2-0.1-0.5-0.3-0.7-0.4S43.3,7,43.1,6.9s-0.4-0.3-0.7-0.4c-0.2-0.1-0.4-0.3-0.7-0.4
			c-0.2-0.1-0.4-0.2-0.5-0.3c-0.2-0.1-0.4-0.2-0.5-0.3c-0.2-0.1-0.3-0.2-0.5-0.3c-0.5-0.3-1-0.6-1.5-0.9s-1-0.6-1.5-0.9
			s-1-0.6-1.5-0.9s-1.1-0.6-1.6-0.9s-0.9-0.5-1.4-0.8c-0.2-0.1-0.4-0.2-0.5-0.3s-0.3-0.1-0.4,0C31.4,0.7,31,1,30.6,1.2
			c-0.6,0.3-1.2,0.7-1.7,1c-0.3,0.2-0.6,0.3-0.8,0.5c-0.6,0.4-1.2,0.7-1.8,1.1c-0.3,0.2-0.7,0.4-1,0.6c-0.2,0.1-0.4,0.2-0.6,0.3
			C24,5,23.5,5.3,23,5.6c-0.2,0.1-0.4,0.2-0.6,0.3c-0.2,0.1-0.5,0.3-0.7,0.4c-0.5,0.3-0.9,0.5-1.4,0.8c-0.3,0.2-0.6,0.3-0.9,0.5
			c-0.1,0.1-0.2,0.1-0.2,0.2l0,0c0,4.8,0,9.7,0,14.5l0,0c0,0.1,0.1,0.2,0.2,0.2c0.2,0.1,0.3,0.2,0.5,0.3c0.7,0.4,1.4,0.8,2.1,1.2
			c0.7,0.4,1.5,0.9,2.2,1.3c0.5,0.3,1.1,0.6,1.6,0.9c0.6,0.3,1.2,0.7,1.8,1c0.5,0.3,1,0.6,1.5,0.9s0.9,0.5,1.4,0.8
			c0.3,0.2,0.6,0.4,0.9,0.5c0.1,0.1,0.3,0.2,0.4,0.2c0.1,0,0.1,0,0.2,0c0.3-0.1,0.5-0.3,0.8-0.4c0.4-0.2,0.7-0.4,1.1-0.6
			c0.6-0.3,1.1-0.6,1.7-1c0.3-0.2,0.6-0.3,0.9-0.5c0.4-0.2,0.7-0.4,1.1-0.6c0.6-0.4,1.3-0.7,1.9-1.1c0.8-0.5,1.6-0.9,2.4-1.4
			c0.8-0.5,1.7-1,2.5-1.4h0.1l0,0l0,0l0.1-0.1c0.1-0.1,0.2-0.1,0.3-0.3c0-1.9,0-3.8,0-5.7c0-2.9,0-5.9,0-8.8
			C44.7,7.8,44.6,7.7,44.5,7.7z M40.7,22.3L40.7,22.3L40.7,22.3L40.7,22.3L40.7,22.3z M42.1,15.8c0,0.9,0,1.8,0,2.8
			c0,0.3,0,0.6,0,0.9s0,0.6-0.1,0.9c0,0.1,0,0.3-0.1,0.4s-0.2,0.3-0.3,0.4c-0.5,0.4-1,0.7-1.5,1c-0.6,0.4-1.2,0.7-1.9,1.1
			c-0.4,0.2-0.7,0.4-1.1,0.6c-0.9,0.5-1.8,1-2.7,1.5c-0.6,0.4-1.3,0.7-1.9,1c-0.2,0.1-0.3,0.2-0.5,0.2c-0.1,0-0.2,0-0.3,0
			s-0.2-0.1-0.3-0.1c-0.6-0.3-1.2-0.6-1.8-1c-1.9-1-3.7-2.1-5.6-3.2c-0.5-0.3-1-0.6-1.5-0.9c-0.2-0.1-0.4-0.3-0.6-0.4
			c-0.1-0.1-0.1-0.2-0.2-0.4c0-0.1,0-0.2,0-0.4c0-0.1,0-0.3,0-0.4c0-0.2,0-0.5,0-0.7c0-0.7,0-1.5,0-2.2c0-1.2,0-2.4,0-3.7
			c0-0.5,0-1,0-1.5v-0.1c0-0.1,0-0.3,0-0.4c0-0.5,0-0.9,0.1-1.4c0-0.1,0-0.2,0-0.3c0-0.2,0.1-0.3,0.2-0.4c0.2-0.1,0.3-0.3,0.5-0.4
			c0.2-0.1,0.4-0.2,0.5-0.3c0.9-0.5,1.7-1,2.6-1.5c1.3-0.8,2.6-1.5,4-2.3c0.5-0.3,1-0.6,1.6-0.8c0.1-0.1,0.2-0.1,0.3-0.1
			c0.2-0.1,0.4-0.1,0.7,0s0.6,0.3,0.9,0.4c0.8,0.4,1.6,0.9,2.3,1.3c0.9,0.5,1.7,1,2.6,1.5c0.5,0.3,1,0.6,1.5,0.9
			c0.2,0.1,0.5,0.3,0.7,0.4c0.3,0.2,0.6,0.4,0.9,0.6c0.1,0.1,0.3,0.2,0.4,0.3C41.9,9.4,42,9.6,42,9.8c0,0.3,0,0.7,0.1,1
			c0,0.3,0,0.5,0,0.8c0,0.7,0,1.4,0,2.2C42.2,14.5,42.2,15.1,42.1,15.8z"/>
		<path class="st5" d="M39.9,12.9c-0.1-0.2-0.3-0.4-0.5-0.5c-0.3-0.3-0.6-0.5-0.9-0.7c-0.4-0.3-0.9-0.5-1.3-0.7
			c-0.4-0.3-0.9-0.5-1.3-0.8c-0.5-0.3-1-0.6-1.5-0.9C33.9,9,33.5,8.8,33,8.4c-0.3-0.2-0.7-0.5-0.9-0.8c-0.1-0.1-0.2-0.1-0.3,0
			s-0.2,0.2-0.4,0.3C31.3,8,31.1,8.1,31,8.2c-0.3,0.2-0.5,0.4-0.8,0.5c-0.3,0.2-0.6,0.4-0.9,0.5C29,9.6,28.7,9.8,28.4,10
			s-0.7,0.4-1,0.6c-0.2,0.1-0.4,0.2-0.6,0.4c-0.3,0.2-0.7,0.4-1,0.6c-0.3,0.2-0.7,0.4-1,0.6c-0.1,0.1-0.3,0.2-0.4,0.4
			c-0.1,0.1-0.2,0.3-0.3,0.4c-0.1,0.1-0.2,0.3-0.3,0.4c-0.1,0.1-0.1,0.2-0.1,0.3c-0.2,0.4-0.3,0.8-0.3,1.3c0,0.4,0,0.8,0.1,1.3
			c0.1,0.2,0.1,0.5,0.2,0.7s0.2,0.4,0.3,0.5c0.4,0.6,0.9,1,1.6,1.3c0.5,0.2,0.9,0.4,1.5,0.4c0.4,0,0.7,0,1-0.1s0.5-0.2,0.8-0.3
			c0.5-0.3,1.1-0.6,1.6-0.9l0.1-0.1v0.1c0,1.1,0,2.2,0,3.2c0,0.1,0,0.2,0,0.2c0,0.1,0,0.1,0.1,0.2l0.1,0.1c0.3,0.2,0.6,0.4,1,0.6
			c0.1,0,0.2,0,0.3,0c0.3-0.2,0.6-0.3,0.9-0.5c0.1,0,0.1-0.1,0.2-0.1l0.1-0.1c0-0.1,0-0.2,0-0.3c0-0.4,0-0.8,0-1.2
			c0-0.7,0-1.4,0-2.1l0,0c0.2,0.1,0.4,0.3,0.7,0.4c0.4,0.2,0.8,0.5,1.3,0.7c0.4,0.2,0.9,0.3,1.3,0.3c0.4,0,0.7-0.1,1.1-0.2
			c1.3-0.4,2.1-1.2,2.6-2.4c0.2-0.6,0.3-1.3,0.2-1.9C40.5,14.1,40.2,13.5,39.9,12.9z M30.4,15c-0.3,0.1-0.5,0.3-0.8,0.4
			c-0.1,0.1-0.3,0.2-0.4,0.3c-0.1,0.1-0.3,0.2-0.4,0.2c-0.2,0.1-0.5,0.3-0.7,0.4s-0.4,0.2-0.5,0.3c-0.3,0.1-0.7,0.1-1,0
			s-0.5-0.4-0.7-0.7c-0.2-0.5-0.2-1,0.1-1.4c0.1-0.2,0.3-0.3,0.4-0.4c0.9-0.5,1.8-1,2.7-1.6c0.4-0.2,0.9-0.5,1.3-0.7
			c0.1-0.1,0.1-0.1,0.1,0.1c0,0.5,0,1,0,1.5l0,0c0,0.5,0,1,0,1.5C30.5,14.9,30.5,14.9,30.4,15z M36.2,16.5c-0.3-0.1-0.6-0.3-0.8-0.4
			c-0.4-0.2-0.9-0.5-1.3-0.7c-0.2-0.1-0.4-0.2-0.6-0.4c-0.1,0-0.1-0.1-0.1-0.1c0-0.3,0-0.6,0-0.8c0-0.7,0-1.4,0-2.1
			c0-0.1,0-0.1,0.1-0.1c0.6,0.4,1.3,0.7,1.9,1.1c0.4,0.2,0.8,0.5,1.2,0.7c0.3,0.2,0.6,0.3,0.9,0.5c0.3,0.2,0.4,0.4,0.5,0.7
			c0,0.1,0,0.2,0.1,0.3c0,0.1,0,0.1,0,0.2c0,0.7-0.5,1.3-1.2,1.4C36.7,16.7,36.4,16.6,36.2,16.5z M36.9,19.1L36.9,19.1
			C36.9,19,36.9,19,36.9,19.1C37,19,37,19.1,36.9,19.1C37,19.1,37,19.1,36.9,19.1z"/>
	</g>
</g>
</svg>
