<svg id="Layer_1" data-name="Layer 1" xmlns="http://www.w3.org/2000/svg" viewBox="0 0 150 30"><defs><style>.cls-1{fill:#ed1c24;}.cls-1,.cls-2{fill-rule:evenodd;}.cls-2,.cls-3{fill:#2e3192;}</style></defs><title>logo hãng</title><path class="cls-1" d="M28.94,4l11.3,7.81a12.39,12.39,0,0,1-5.84,1.76C33,13.57,32.09,13,30,11.64s-3-2.12-3.25-2.28c-.43-.32-1,.16-.57.54s13.91,9.39,13.91,9.39A40.76,40.76,0,0,0,28.92,26L17.63,18.19a12.39,12.39,0,0,1,5.84-1.76c1.38,0,2.31.54,4.37,1.93s3,2.12,3.24,2.28c.44.32,1-.16.58-.54s-13.91-9.39-13.91-9.39A40.81,40.81,0,0,0,28.94,4Z"/><path class="cls-2" d="M51.14,17.5c0,.2.27,1.39,2.3,1.39,1.5,0,1.88-.48,1.88-.88,0-2.31-10,0-10-5.28,0-3.23,3.63-4.37,7.43-4.37,8.44,0,7.87,4.13,7.87,4.13h-6c0-.76-1.13-1.4-1.91-1.4s-2.16,0-2.16.91c0,1.84,10.52.49,10.52,5.42,0,1.71-.92,4.31-8.14,4.31C44.11,21.73,45,17.5,45,17.5Z"/><rect class="cls-3" x="127.81" y="8.55" width="4.56" height="12.67"/><polygon class="cls-2" points="110.35 21.23 110.35 8.55 114.84 8.55 114.84 13.3 120.3 8.55 126.73 8.55 119.61 14.45 126.68 21.23 120.22 21.23 114.84 16.32 114.84 21.23 110.35 21.23"/><polygon class="cls-2" points="85.42 18.1 92.91 18.1 92.91 21.23 77.89 21.23 77.89 18.6 85.38 11.83 78.17 11.83 78.17 8.55 92.88 8.55 92.88 11.33 85.42 18.1"/><path class="cls-2" d="M61.52,8.55h5v7.86c0,1.58,1.42,2.26,2.84,2.26s2.83-.68,2.83-2.26c0-2.6,0-7.86,0-7.86H77v8.72c0,3.75-4.3,4.17-7.72,4.17s-7.72-.42-7.72-4.17Z"/><path class="cls-2" d="M93.77,8.55h5s0,5.32,0,7.86c0,1.58,1.43,2.26,2.84,2.26s2.83-.68,2.83-2.26V8.55h4.79v8.72c0,3.75-4.3,4.17-7.72,4.17s-7.72-.42-7.72-4.17Z"/></svg>